PathFileType	4	(X/Y/Z)	C:/Users/opensim2020/Desktop/walking_exp_matlab/subject03_walking06_straight_04.trc																																																																																																																																		
DataRate	CameraRate	NumFrames	NumMarkers	Units	OrigDataRate	OrigDataStartFrame	OrigNumFrames																																																																																																																														
100	100	7	44	mm	100	2833	278																																																																																																																														
Frame#	Time	LFHD			RFHD			LBHD			RBHD			C7			T10			CLAV			STRN			RBAK			LSHO			LUPA			LELB			LFRM			LWRA			LWRB			LFIN			RSHO			RUPA			RELB			RFRM			RWRA			RWRB			RFIN			LASI			RASI			LPSI			RPSI			LTHI			LKNE			LTIB			LANK			LHEE			LTOE			RTHI			RKNE			RTIB			RANK			RHEE			RTOE			*39			*40			*41			*42			*43		
		X1	Y1	Z1	X2	Y2	Z2	X3	Y3	Z3	X4	Y4	Z4	X5	Y5	Z5	X6	Y6	Z6	X7	Y7	Z7	X8	Y8	Z8	X9	Y9	Z9	X10	Y10	Z10	X11	Y11	Z11	X12	Y12	Z12	X13	Y13	Z13	X14	Y14	Z14	X15	Y15	Z15	X16	Y16	Z16	X17	Y17	Z17	X18	Y18	Z18	X19	Y19	Z19	X20	Y20	Z20	X21	Y21	Z21	X22	Y22	Z22	X23	Y23	Z23	X24	Y24	Z24	X25	Y25	Z25	X26	Y26	Z26	X27	Y27	Z27	X28	Y28	Z28	X29	Y29	Z29	X30	Y30	Z30	X31	Y31	Z31	X32	Y32	Z32	X33	Y33	Z33	X34	Y34	Z34	X35	Y35	Z35	X36	Y36	Z36	X37	Y37	Z37	X38	Y38	Z38	X39	Y39	Z39	X40	Y40	Z40	X41	Y41	Z41	X42	Y42	Z42	X43	Y43	Z43	X44	Y44	Z44
																																																																																																																																					
105	1.04	-317.80682	1591.99634	931.00684	-331.255	1599.73328	1062.98608	-451.35995	1570.34619	922.09747	-459.63919	1576.78943	1052.74573	-510.08383	1410.06848	976.23615	-552.6955	1094.31909	975.6535	-394.06393	1327.40002	990.43469	-352.8176	1163.14868	985.62335	-579.9306	1231.16516	1063.0509	-418.9024	1367.12451	832.68335	-379.44577	1181.24683	755.12195	-335.3667	1066.1947	743.6391	-269.95947	954.56702	753.94012	-220.1172	849.14166	791.73956	-229.96182	848.92798	736.54657	-186.40508	778.60651	751.73828	-457.65399	1350.86157	1144.61145	-480.4823	1127.27478	1212.52563	-475.49097	1014.54742	1225.80933	-472.80124	877.70123	1228.65063	-447.91766	779.56799	1197.77283	-484.91333	777.95325	1237.21936	-469.3075	704.55133	1228.94812	-382.99103	931.55847	864.01624	-390.53375	929.3186	1102.9447	-546.59198	954.24597	911.62695	-550.76776	953.13007	1059.72546	-470.75754	633.98145	831.414	-498.73779	457.96906	869.1861	-587.88159	279.89536	870.74548	-645.34601	76.63715	915.12408	-688.35687	46.5128	953.45471	-496.70239	28.62251	930.27606	-380.13126	637.99359	1154.56299	-299.98718	476.51617	1124.12341	-304.41541	287.38885	1127.16882	-273.02356	72.00729	1086.10376	-301.60388	35.99961	1026.15027	-131.02055	49.67899	1091.50818	-393.2308	1666.0835	978.37848	NaN	NaN	NaN	NaN	NaN	NaN	NaN	NaN	NaN	NaN	NaN	NaN
106	1.05	-308.41083	1590.78052	932.00348	-321.89725	1598.41931	1064.02783	-441.92059	1569.05737	923.04156	-450.24026	1575.38074	1053.69434	-500.77512	1408.84338	977.17804	-543.61963	1093.10498	976.91254	-384.73578	1326.02478	991.2016	-343.6976	1161.89844	986.25543	-570.57471	1229.86658	1063.88928	-409.84671	1365.84778	833.58716	-369.82053	1180.4541	755.70258	-324.67972	1065.85718	744.10516	-257.29398	955.51135	754.78082	-205.4274	851.36951	793.09601	-215.48959	850.52228	737.98834	-170.27063	781.44208	753.41742	-448.22702	1349.55127	1145.46289	-473.09702	1126.11462	1213.26965	-469.07776	1013.34399	1226.27478	-467.74762	876.47656	1228.99536	-443.56821	778.1922	1198.28638	-480.79721	776.82489	1237.35364	-465.76285	703.32062	1229.1991	-374.12173	930.38617	864.78064	-380.88681	927.69421	1103.75232	-537.79053	952.98413	912.97882	-541.21887	951.63159	1061.12158	-463.71097	633.34009	831.86456	-493.30698	457.45877	869.44104	-584.70361	280.37292	870.8222	-644.65991	77.63766	914.88208	-687.88745	47.7488	953.02454	-496.60617	28.55016	930.24982	-373.4494	635.28448	1155.1394	-291.96674	474.40277	1123.45605	-289.04306	286.48578	1127.78967	-248.04257	72.1664	1088.42053	-275.86911	35.49419	1028.52722	-104.8293	53.22203	1092.29639	-384.13016	1668.96802	973.38727	NaN	NaN	NaN	NaN	NaN	NaN	NaN	NaN	NaN	NaN	NaN	NaN
107	1.06	-298.9726	1589.70996	933.02301	-312.48032	1597.18188	1065.07275	-432.54169	1567.88232	924.06104	-440.83557	1574.05139	1054.70569	-491.32632	1407.66589	978.20093	-534.38397	1091.92395	978.29956	-375.36105	1324.69983	992.08832	-334.41467	1160.42749	986.95233	-561.10004	1228.59119	1064.90967	-400.88077	1364.61682	834.56085	-360.15845	1179.68921	756.28357	-314.2475	1065.48193	744.59442	-244.96161	956.40369	755.66937	-191.02341	853.54602	794.57129	-201.34894	852.03741	739.56732	-154.56931	784.24597	755.17566	-438.65952	1348.28186	1146.37341	-465.39584	1125.06934	1213.92749	-462.44107	1012.2196	1226.80811	-462.36151	875.36444	1229.38965	-438.87057	776.85358	1198.66785	-476.38162	775.77466	1237.53711	-461.85861	702.18335	1229.44971	-365.17062	929.25	865.61871	-371.0184	926.13324	1104.50818	-528.80811	951.73273	914.42291	-531.53802	950.19952	1062.61169	-456.45236	632.66028	832.30682	-487.81073	457.00922	869.69781	-581.42261	280.93695	870.89697	-644.06073	78.88243	914.6925	-687.73444	49.69274	952.96924	-496.51114	28.47013	930.24402	-366.71713	632.57794	1155.20361	-283.8736	472.25464	1123.04419	-274.42767	285.76126	1128.39001	-225.26324	72.8275	1090.34338	-252.37341	35.36974	1030.85889	-80.92279	57.30077	1092.56824	-374.24683	1665.33484	985.89453	NaN	NaN	NaN	NaN	NaN	NaN	NaN	NaN	NaN	NaN	NaN	NaN
108	1.07	-289.49988	1588.69434	934.1095	-303.08484	1596.05762	1066.14526	-422.96515	1566.61206	925.07928	-431.38892	1572.70239	1055.68054	-481.83694	1406.48889	979.38312	-525.13062	1090.80896	979.73328	-365.86194	1323.46948	992.99951	-325.12982	1159.15796	987.73969	-551.51813	1227.40527	1066.0675	-391.7327	1363.36719	835.5481	-350.82159	1178.88855	757.14612	-303.83917	1065.02783	745.17468	-233.01915	957.20349	756.58282	-177.11528	855.68616	796.05902	-187.67601	853.51575	741.20587	-139.35199	787.01245	757.0611	-429.05042	1347.22058	1147.49585	-457.41238	1124.073	1214.64124	-455.50467	1011.16058	1227.42725	-456.67252	874.25769	1229.79321	-433.59323	775.71912	1198.87695	-471.64847	774.8476	1237.67712	-457.51675	701.31818	1229.58704	-356.0506	928.10052	866.44586	-360.86154	924.64764	1105.26306	-519.61987	950.50403	916.01404	-521.63434	948.85114	1064.20044	-449.11066	632.10962	832.67114	-482.09882	456.61414	869.86078	-578.02313	281.60324	870.88422	-643.24768	80.27753	914.47998	-687.38269	51.60228	952.64307	-496.37125	28.42793	930.18848	-359.2684	630.56549	1155.84985	-275.81161	470.11652	1122.66296	-260.58688	285.22687	1129.05151	-204.79204	73.58315	1091.79065	-231.22581	35.17624	1032.89319	-59.53738	61.65816	1092.29651	-365.19241	1665.74585	975.59094	NaN	NaN	NaN	NaN	NaN	NaN	NaN	NaN	NaN	NaN	NaN	NaN
109	1.08	-280.05701	1587.70532	935.16217	-293.6553	1595.01245	1067.21252	-413.48569	1565.4093	926.09808	-421.90717	1571.47412	1056.79431	-472.46164	1405.47241	980.61011	-515.68298	1089.7157	981.21674	-356.32755	1322.33887	994.0191	-315.69028	1158.18726	988.57513	-541.80664	1226.29944	1067.38049	-382.61362	1362.19421	836.57471	-341.33987	1177.96045	758.04633	-293.85196	1064.52075	745.85651	-221.32172	957.93671	757.70221	-163.65198	857.74622	797.71118	-174.46445	854.88989	742.94342	-124.6319	789.68372	759.03381	-419.20111	1346.18384	1148.72717	-449.155	1123.11475	1215.3999	-448.24036	1010.15326	1228.02893	-450.64905	873.27026	1230.18652	-428.14441	774.55389	1199.32654	-466.54074	773.89697	1237.81555	-452.92883	700.24591	1229.66028	-347.20996	926.9328	866.72534	-350.61047	923.28278	1106.01941	-510.34445	949.37708	917.63647	-511.57144	947.74152	1065.85974	-441.68231	631.60437	832.86792	-476.19455	456.2637	869.93982	-574.41888	282.34393	870.90167	-642.34448	81.76218	914.09778	-686.96094	53.74844	952.22058	-496.29187	28.38024	930.1181	-351.12387	628.89185	1156.7915	-267.55197	468.20313	1122.69055	-247.92912	284.72983	1129.49463	-186.8746	74.3769	1092.78271	-212.75534	35.09833	1034.29761	-40.81513	65.54845	1091.65076	-355.93546	1661.34204	982.6687	NaN	NaN	NaN	NaN	NaN	NaN	NaN	NaN	NaN	NaN	NaN	NaN
110	1.09	-270.63239	1586.89368	936.25159	-284.17273	1594.13232	1068.3186	-404.08438	1564.47021	927.2522	-412.41885	1570.34363	1057.92993	-462.84543	1404.40808	981.95361	-505.93274	1088.66882	982.68164	-346.69193	1321.34473	995.04291	-306.09546	1157.1687	989.45831	-531.99152	1225.27063	1068.82361	-373.49991	1361.12402	837.67206	-332.14795	1177.14966	759.06696	-284.08429	1064.021	746.6272	-210.05034	958.61768	758.79938	-150.58556	859.79321	799.37952	-161.75742	856.18829	744.71576	-110.49751	792.34424	761.0152	-409.38837	1345.27429	1150.02966	-440.53595	1122.31482	1216.13586	-440.61496	1009.2146	1228.74609	-444.18481	872.33948	1230.5968	-422.52478	773.36981	1199.59973	-460.97137	773.11377	1238.02783	-447.93933	699.34259	1229.81897	-337.92654	925.90338	867.40179	-340.1832	922.20642	1106.75696	-500.79395	948.354	919.3905	-501.39069	946.83722	1067.59119	-434.18597	631.30109	833.59448	-470.04697	456.03503	870.0105	-570.50122	283.25424	870.84039	-641.41089	83.62724	913.76343	-686.45056	56.20281	951.77057	-496.15524	28.35854	930.02234	-342.14188	627.6958	1157.74084	-259.14743	466.62863	1122.81848	-236.3494	284.28357	1130.02527	-171.59319	74.68999	1093.32031	-197.06592	34.7822	1035.24304	-25.00363	68.25325	1090.70642	-346.26883	1664.79736	977.67139	NaN	NaN	NaN	NaN	NaN	NaN	NaN	NaN	NaN	NaN	NaN	NaN
111	1.1	-261.15723	1586.23694	937.3689	-274.67599	1593.47974	1069.40234	-394.42236	1563.39673	928.3598	-402.80481	1569.3645	1059.0105	-453.19312	1403.51184	983.38995	-496.08444	1087.72046	984.17688	-336.97272	1320.4967	996.16003	-296.31195	1156.38574	990.47986	-522.09534	1224.36865	1070.29724	-364.31937	1360.229	838.81793	-322.97348	1176.38599	760.11908	-274.56461	1063.43457	747.43744	-199.22295	959.22205	759.91998	-138.07698	861.73254	801.10297	-149.50754	857.41388	746.58673	-96.94581	794.86597	763.1015	-399.30692	1344.32373	1151.26807	-431.85477	1121.53247	1217.23242	-432.6438	1008.39166	1229.44958	-437.36279	871.4986	1231.02673	-416.42126	772.42731	1199.84509	-454.97729	772.37476	1238.22131	-442.45801	698.51959	1229.91614	-328.52466	924.98486	868.20148	-329.65704	921.3844	1107.58032	-490.97318	947.44	921.17938	-491.0892	946.16302	1069.39124	-426.44809	631.05603	834.10321	-463.39511	455.76898	870.09216	-566.28302	284.26031	870.77441	-640.24744	85.70859	913.32648	-685.70813	58.92988	951.30945	-495.88531	28.3671	929.94653	-332.32758	626.9696	1158.67676	-250.21107	465.5181	1122.86633	-226.07774	283.62155	1130.25208	-159.29164	74.38638	1093.52856	-184.69653	34.15909	1035.67969	-12.24536	69.31406	1089.44019	-337.29834	1659.51172	984.76147	NaN	NaN	NaN	NaN	NaN	NaN	NaN	NaN	NaN	NaN	NaN	NaN
